# xmcd CD database file
#
# Track frame offsets:
#	150
#	13440
#	25535
#	38823
#	52715
#	66498
#	84215
#	94983
#	108098
#	121910
#	139465
#	152430
#
# Disc length: 2194 seconds
#
# Revision: 2
# Processed by: cddbd v1.5.1PL0 Copyright (c) Steve Scherf et al.
# Submitted via: CDex 1.51
#
DISCID=9108900c
DTITLE=Tanya Tucker - Nothing But The Best Volume One
DYEAR=1993
DGENRE=Country
TTITLE0=Delta Dawn
TTITLE1=Loves The Answer
TTITLE2=Jamestown Ferry
TTITLE3=What's Your Mama's Name
TTITLE4=Blood Red And Goin' Down
TTITLE5=The Best Of My Love
TTITLE6=Would You Lay With Me (In A Field Of Stone)
TTITLE7=The Man That Turned My Mama On
TTITLE8=I Believe The South Is Gonna Rise Again
TTITLE9=Spring
TTITLE10=Greener Than The Grass (We Laid On)
TTITLE11=You Are So Beautiful
EXTD=YEAR: 1993
EXTT0=
EXTT1=
EXTT2=
EXTT3=
EXTT4=
EXTT5=
EXTT6=
EXTT7=
EXTT8=
EXTT9=
EXTT10=
EXTT11=
PLAYORDER=
